<?xml version="1.0" encoding="UTF-8"?><svg id="icons" xmlns="http://www.w3.org/2000/svg" viewBox="0 0 106.86 93.11"><defs><style>.cls-1{fill:#fff;}</style></defs><g><path class="cls-1" d="M77.85,66.12c-.69,0-1.25,.56-1.25,1.25s.56,1.25,1.25,1.25,1.25-.56,1.25-1.25-.56-1.25-1.25-1.25Z"/><path class="cls-1" d="M79.85,58.83c-.69,0-1.25,.56-1.25,1.25s.56,1.25,1.25,1.25,1.25-.56,1.25-1.25-.56-1.25-1.25-1.25Z"/><path class="cls-1" d="M77.63,64.62c.69,0,1.25-.56,1.25-1.25s-.56-1.25-1.25-1.25-1.25,.56-1.25,1.25,.56,1.25,1.25,1.25Z"/><path class="cls-1" d="M83.92,57.99c-.69,0-1.25,.56-1.25,1.25s.56,1.25,1.25,1.25,1.25-.56,1.25-1.25-.56-1.25-1.25-1.25Z"/><path class="cls-1" d="M82.2,50.82c-7.67,0-13.88,6.22-13.88,13.88s6.22,13.88,13.88,13.88,13.88-6.22,13.88-13.88-6.22-13.88-13.88-13.88Zm8.27,12.47c-.83,3.58-5.89,2.74-7.56,4.5-1.7,1.78,1.44,4.84-.76,5.18-4.65,.71-8.16-3.23-8.16-8.16s3.99-8.92,8.92-8.92,8.58,2.97,7.56,7.39Z"/></g><path class="cls-1" d="M52.13,40.7c.45,.2,.88,.43,1.29,.7,2.71-5.11,9.04-10.83,14.32-12.03,3.42-.78,6.94-.18,9.9,1.68,2.97,1.86,5.03,4.77,5.82,8.19,.8,3.51,.11,7.02-1.66,9.86,.13,0,.27-.02,.4-.02,.44,0,.88,.03,1.32,.07,1.65-3.03,2.26-6.63,1.43-10.25-.87-3.81-3.18-7.06-6.49-9.14-3.31-2.08-7.24-2.75-11.05-1.87-1.35,.31-2.76,.89-4.16,1.66-.64,.35-1.28,.74-1.91,1.17-3.78,2.57-7.27,6.38-9.2,9.99Z"/><path class="cls-1" d="M57,50.01c4.15,.55,9.14,2.6,12.71,5.32,.3-.4,.62-.79,.96-1.16-3.79-2.9-9.04-5.04-13.51-5.62-.01,.5-.06,.99-.16,1.46Z"/><path class="cls-1" d="M50.49,56.53c-.47,.1-.96,.14-1.46,.16,.97,5.5,.12,12.84-2.63,16.9-4.06,5.99-12.23,7.56-18.23,3.51-5.99-4.06-7.56-12.24-3.5-18.23,.48-.71,1.09-1.42,1.8-2.11-.66-.04-1.29-.12-1.88-.23-.44,.49-.84,.99-1.17,1.49-4.53,6.69-2.78,15.81,3.91,20.34,2.51,1.7,5.37,2.52,8.19,2.52,4.7,0,9.32-2.25,12.15-6.43,.46-.69,.88-1.46,1.24-2.28,.29-.66,.55-1.36,.78-2.09,1.3-4.17,1.55-9.3,.81-13.54Z"/><path class="cls-1" d="M27.72,56.81c4.6,0,10.13-1.45,14.19-3.8-.28-.42-.52-.86-.73-1.33-4.88,2.83-12.26,4.31-16.82,3.27-3.42-.78-6.33-2.85-8.19-5.82-1.86-2.97-2.46-6.49-1.68-9.9,1.39-6.08,6.81-10.2,12.79-10.2,.97,0,1.95,.11,2.93,.33,5.23,1.2,11.49,6.83,14.25,11.9,.41-.26,.85-.48,1.3-.66-1.89-3.49-5.22-7.15-8.85-9.69-.64-.45-1.29-.86-1.94-1.23-1.48-.84-2.98-1.47-4.42-1.8-3.81-.87-7.74-.21-11.05,1.87s-5.62,5.33-6.49,9.14c-.87,3.81-.21,7.74,1.87,11.05,2.08,3.31,5.33,5.62,9.14,6.49,.18,.04,.37,.06,.56,.09,.6,.11,1.23,.18,1.88,.23,.41,.03,.82,.06,1.25,.06Z"/><path class="cls-1" d="M48.83,30.25c-.42,0-.76,.34-.76,.76v9.04c.25-.02,.5-.04,.76-.04s.51,.02,.76,.04v-9.04c0-.42-.34-.76-.76-.76Z"/><path class="cls-1" d="M66.67,44.14c-.08-.41-.48-.68-.9-.6l-9.16,1.84c.18,.47,.32,.96,.42,1.47l9.05-1.82c.41-.08,.68-.48,.6-.9Z"/><path class="cls-1" d="M58.88,62.31c.15,.21,.38,.31,.62,.31,.15,0,.31-.05,.45-.14,.34-.25,.42-.72,.17-1.06l-5.27-7.3c-.35,.37-.74,.7-1.15,1l5.19,7.19Z"/><path class="cls-1" d="M38.36,62.63c.14,.11,.3,.16,.47,.16,.23,0,.45-.1,.6-.29l5.35-6.85c-.45-.25-.87-.53-1.26-.86l-5.29,6.77c-.26,.33-.2,.81,.13,1.07Z"/><path class="cls-1" d="M32.04,43.34c-.12,.4,.1,.83,.5,.95l8.09,2.52c.1-.51,.24-.99,.42-1.46l-8.06-2.51c-.4-.12-.83,.1-.95,.5Z"/><path class="cls-1" d="M54.85,54.12c1.07-1.12,1.84-2.53,2.16-4.11,.1-.47,.14-.96,.16-1.46,0-.06,0-.13,0-.19,0-.52-.05-1.02-.14-1.51-.09-.51-.23-1-.42-1.47-.63-1.64-1.75-3.03-3.19-3.98-.41-.27-.84-.5-1.29-.7-.79-.34-1.65-.57-2.54-.65-.25-.02-.5-.04-.76-.04s-.51,.02-.76,.04c-.81,.07-1.58,.26-2.3,.55-.46,.18-.89,.4-1.3,.66-1.54,.95-2.74,2.38-3.41,4.09-.18,.47-.33,.96-.42,1.46-.09,.5-.15,1.02-.15,1.55,0,1.18,.25,2.31,.7,3.33,.2,.47,.44,.91,.73,1.33,.45,.67,.99,1.26,1.61,1.77,.39,.32,.81,.61,1.26,.86,1.2,.67,2.58,1.05,4.05,1.05,.07,0,.14,0,.21-.01,.5-.01,.98-.06,1.46-.16,1.18-.24,2.26-.73,3.2-1.41,.41-.3,.8-.63,1.15-1Zm-6.02,1.06c-3.76,0-6.82-3.06-6.82-6.82s3.06-6.82,6.82-6.82,6.82,3.06,6.82,6.82-3.06,6.82-6.82,6.82Z"/><g><path class="cls-1" d="M37.7,19.24l-1.19-.96c-1.31,2.2-2.05,4.7-2.08,7.33-.01,1.28,.18,2.66,.54,4.08,.65,.37,1.3,.79,1.94,1.23-.63-1.85-.98-3.66-.96-5.29,.03-2.28,.64-4.46,1.75-6.39Z"/><path class="cls-1" d="M59.56,15.54c-2.73-2.8-6.4-4.36-10.31-4.41-3.89-.03-7.61,1.44-10.4,4.17-.03,.03-.05,.06-.08,.09l1.19,.96c2.47-2.39,5.7-3.7,9.13-3.7,.05,0,.1,0,.15,0,3.51,.04,6.79,1.44,9.24,3.95s3.78,5.82,3.74,9.32c-.02,1.44-.33,3.08-.87,4.78,.63-.43,1.27-.82,1.91-1.17,.3-1.26,.47-2.48,.49-3.6,.04-3.91-1.44-7.61-4.17-10.4Z"/></g><g><path class="cls-1" d="M57.98,78.55c-2.58-.88-4.82-2.54-6.43-4.81-.71-1.01-1.34-2.27-1.86-3.68-.23,.73-.49,1.43-.78,2.09,.42,.91,.89,1.75,1.4,2.47,1.86,2.62,4.47,4.51,7.48,5.46l.19-1.54Z"/><path class="cls-1" d="M71.16,75.77c-.42,.38-.85,.75-1.32,1.09-2.71,1.92-5.98,2.72-9.26,2.3l-.19,1.51c.63,.08,1.26,.13,1.89,.13,3.01,0,5.94-.93,8.44-2.7,.56-.4,1.08-.84,1.57-1.31-.39-.32-.77-.66-1.13-1.02Z"/></g></svg>