<?xml version="1.0" encoding="UTF-8"?><svg id="icons" xmlns="http://www.w3.org/2000/svg" viewBox="0 0 95.77 78.48"><defs><style>.cls-1{fill:none;}.cls-2{fill:#fff;}</style></defs><g><polygon class="cls-1" points="64.21 47.35 68.63 49.19 70.42 45.11 65.95 43.24 64.21 47.35"/><polygon class="cls-1" points="77.57 60.97 72.82 59.02 70.99 63.18 75.72 65.25 77.57 60.97"/><polygon class="cls-1" points="68.03 50.57 64.93 49.28 66.66 53.7 68.03 50.57"/><polygon class="cls-1" points="72.04 57.07 73.82 52.99 69.41 51.15 67.61 55.26 72.04 57.07"/><path class="cls-1" d="M62.06,41.94l1.35,3.45,1.15-2.73-2.62-1.09c.03,.12,.06,.24,.12,.37Z"/><path class="cls-1" d="M78.2,46.73l4.5,1.88c-.05-.13-.08-.25-.13-.38-.75-1.92-1.72-3.57-2.86-4.95l-1.51,3.45Z"/><path class="cls-1" d="M81.31,56.11l-1.75,4.05,2.6,1.07c.73-1.29,1.23-2.67,1.49-4.14l-2.34-.98Z"/><polygon class="cls-1" points="82.29 50.06 77.6 48.1 75.81 52.19 80.52 54.16 82.29 50.06"/><polygon class="cls-1" points="70.01 49.77 74.43 51.61 76.22 47.53 71.8 45.69 70.01 49.77"/><polygon class="cls-1" points="71.43 58.45 67.95 57.02 69.89 61.97 71.43 58.45"/><path class="cls-1" d="M78.96,61.54l-1.87,4.32,.5,.22c1.51-1.04,2.76-2.23,3.74-3.56l-2.37-.97Z"/><path class="cls-1" d="M74.69,67.65l.44-1.02-4.13-1.81,.76,1.93c.5,1.28,1.41,1.47,1.73,1.5,.41-.16,.8-.34,1.18-.52,0-.03,0-.06,.02-.08Z"/><path class="cls-1" d="M86.79,43.94c-1.77-.19-3.38,.84-3.98,1.28,.42,.78,.82,1.59,1.16,2.46,.06,.17,.11,.33,.17,.49,1.97-1.58,4.46-1.11,5.15-.94,.36-.06,.6-.19,.71-.38,.16-.26,.09-.66,.03-.87-.95-1.24-2.04-1.93-3.25-2.06Z"/><path class="cls-1" d="M69.15,64.2h0l-6.46-16.53h0l-1.9-4.88c-3.29,2-16.31,10.58-13,19.03,3.31,8.46,18.68,5.93,22.46,5.17l-1.09-2.8Z"/><path class="cls-1" d="M72.4,44.31l4.42,1.84,1.79-4.08c-1.2-1.17-2.55-2.09-4.03-2.72l-2.17,4.95Z"/><path class="cls-1" d="M62.28,40.09l2.86,1.19,1.14-2.71c-1.29,.22-2.61,.58-3.97,1.1-.07,.07-.16,.2-.25,.37,.07,0,.15,.01,.22,.04Z"/><path class="cls-1" d="M83.46,51.14l-1.55,3.6,1.92,.8c.09-1.41-.03-2.88-.37-4.4Z"/><polygon class="cls-1" points="75.21 53.57 73.42 57.64 78.17 59.59 79.92 55.53 75.21 53.57"/><path class="cls-1" d="M66.53,41.86l4.49,1.87,2.14-4.88c-1.6-.47-3.33-.63-5.15-.49l-1.48,3.5Z"/><path class="cls-2" d="M91.41,45.37c-.02-.06-.06-.12-.1-.17-1.23-1.65-2.7-2.58-4.38-2.75-2.16-.22-4.04,.87-4.89,1.48-1.81-2.81-4.19-4.88-7.02-6.04-3.92-1.6-8.55-1.45-13.39,.45-.07,.03-.14,.07-.21,.12-.06,.05-1.22,1.05-1.05,2.84-2.8,1.64-17.91,11.04-13.99,21.08,2.24,5.72,8.87,7.1,14.75,7.1,4.46,0,8.49-.79,9.84-1.09,.98,1.28,2.32,1.38,2.62,1.38,.03,0,.05,0,.06,0,.08,0,.16-.02,.24-.05,9.28-3.63,13.26-11.15,10.76-19.95,1.65-1.83,4.26-1.07,4.37-1.03,.1,.03,.21,.04,.32,.03,1.15-.15,1.69-.69,1.95-1.12,.58-.98,.16-2.12,.11-2.25Zm-8.83,2.86c.05,.13,.08,.25,.13,.38l-4.5-1.88,1.51-3.45c1.14,1.38,2.11,3.02,2.86,4.95Zm-.42,13l-2.6-1.07,1.75-4.05,2.34,.98c-.26,1.47-.76,2.86-1.49,4.14Zm-7.73-9.61l-4.41-1.84,1.79-4.09,4.42,1.84-1.79,4.09Zm3.17-3.51l4.69,1.95-1.77,4.1-4.71-1.96,1.79-4.09Zm-3.78,4.88l-1.79,4.08-4.42-1.82,1.8-4.11,4.41,1.84Zm-5.2-3.79l-4.42-1.84,1.73-4.11,4.47,1.87-1.79,4.09Zm-5.22-3.8l-1.35-3.45c-.05-.13-.08-.25-.12-.37l2.62,1.09-1.15,2.73Zm4.62,5.18l-1.37,3.13-1.73-4.42,3.1,1.29Zm3.41,7.88l-1.55,3.53-1.94-4.96,3.48,1.43Zm1.39,.57l4.75,1.95-1.85,4.29-4.73-2.07,1.83-4.17Zm.6-1.37l1.79-4.08,4.71,1.97-1.75,4.06-4.75-1.95Zm8.48-2.91l1.55-3.6c.34,1.52,.46,2.99,.37,4.4l-1.92-.8Zm-3.3-12.66l-1.79,4.08-4.42-1.84,2.17-4.95c1.48,.63,2.83,1.55,4.03,2.72Zm-5.45-3.22l-2.14,4.88-4.49-1.87,1.48-3.5c1.82-.13,3.55,.03,5.15,.49Zm-6.87-.28l-1.14,2.71-2.86-1.19c-.07-.03-.14-.04-.22-.04,.09-.17,.19-.3,.25-.37,1.36-.52,2.68-.87,3.97-1.1Zm-18.5,23.25c-3.31-8.46,9.71-17.03,13-19.03l1.9,4.87h0l6.46,16.54h0l1.09,2.8c-3.78,.76-19.15,3.28-22.46-5.17Zm25.7,6.43c-.32-.03-1.23-.22-1.73-1.5l-.76-1.93,4.13,1.81-.44,1.02s0,.05-.02,.08c-.39,.18-.77,.36-1.18,.52Zm4.11-2.18l-.5-.22,1.87-4.32,2.37,.97c-.97,1.33-2.23,2.53-3.74,3.56Zm12.41-19.21c-.11,.18-.35,.31-.71,.38-.69-.17-3.18-.65-5.15,.94-.06-.16-.1-.33-.17-.49-.34-.87-.74-1.68-1.16-2.46,.6-.44,2.21-1.47,3.98-1.28,1.21,.13,2.3,.82,3.25,2.06,.06,.2,.12,.61-.03,.87Z"/></g><g><path class="cls-1" d="M27.38,33.43c.51-.06,1.05-.09,1.62-.09s1.1,.04,1.61,.1c.29-1.18,1.24-4.11,3.88-7.16-.75-.75-2.38-1.88-5.5-1.88s-4.73,1.11-5.49,1.89c2.64,3.04,3.58,5.98,3.88,7.16Z"/><path class="cls-1" d="M34.15,41.86c-.05,.11-.13,.2-.22,.27,2.26,.63,3.26,1.64,3.69,2.32,2.41-1.33,5.55-2.44,9.54-2.8,2.07-3.38,1.63-8.93,1.36-11.04-10.83,3.7-14.34,11.18-14.38,11.26Z"/><path class="cls-1" d="M32.1,33.69c2.22,.51,3.83,1.45,4.79,2.16,1.7-1.65,4.01-3.42,7.06-4.95,0-.02,0-.04,.01-.06,1.66-4.44,.29-7.95-.37-9.24-8.64,3.71-10.99,10.23-11.5,12.09Z"/><path class="cls-1" d="M28.99,22.89c.78,0,1.47,.08,2.1,.19-.04-.11-.07-.24-.05-.36,.02-.15,.33-2.11,1.52-4.28-.76-.35-2.16-.97-3.57-1.46-1.38,.48-2.76,1.1-3.56,1.47,1.14,2.1,1.42,3.97,1.44,4.12,.03,.19-.03,.38-.13,.53,.67-.12,1.42-.2,2.25-.2Z"/><path class="cls-1" d="M28.99,43.05c-5.15,0-6.81,1.46-7.3,2.12,.85,.54,1.6,1.1,2.25,1.64,3.39,2.85,4.69,5.79,4.75,5.91,.09,.21,.07,.44-.03,.63,.11,.03,.22,.06,.33,.09,.15-.05,.31-.09,.47-.13-.04-.15-.05-.32,.02-.47,.05-.12,1.3-3.09,4.65-5.97,.63-.54,1.36-1.1,2.2-1.64-.42-.61-2.02-2.17-7.34-2.17Z"/><path class="cls-1" d="M28.99,41.55c1.51,0,2.76,.12,3.81,.31-.09-.19-.1-.42-.01-.62,.07-.16,.95-2,3.05-4.3-1.13-.79-3.5-2.1-6.84-2.1s-5.65,1.26-6.84,2.1c2.1,2.3,2.97,4.14,3.05,4.3,.09,.21,.08,.43-.01,.62,1.05-.19,2.3-.31,3.81-.31Z"/><path class="cls-1" d="M28.76,15.46c.15-.05,.32-.05,.47,0,1.68,.56,3.35,1.32,4.14,1.68,.43-.6,.95-1.19,1.55-1.75-.3-1-1.86-5.44-5.93-7.36-4.05,1.91-5.61,6.33-5.93,7.35,.61,.56,1.14,1.15,1.57,1.76,.83-.39,2.48-1.14,4.12-1.69Z"/><path class="cls-1" d="M32.3,23.35c1.54,.46,2.57,1.18,3.21,1.82,1.24-1.24,2.79-2.46,4.71-3.56-.03-.11-.05-.22-.03-.33,.53-3.19-1.02-5.57-1.71-6.44-5.05,2.22-5.94,8.03-5.95,8.09-.02,.17-.11,.32-.23,.43Z"/><path class="cls-1" d="M33.72,57.41c.87-.76,1.78-1.34,2.7-1.8-2.45-.89-5.28-1.42-7.15-.67-.18,.07-.38,.07-.56,0-1.88-.75-4.69-.22-7.15,.67,.92,.46,1.83,1.05,2.7,1.81,2.57,2.25,3.97,4.29,4.73,5.96,.76-1.67,2.16-3.71,4.73-5.96Z"/><path class="cls-1" d="M23.28,58.53c-4.55-3.98-10.58-2.88-12.67-2.32,5.03,11.53,14.92,11.16,17.56,10.83-.01-.31,0-.69,.07-1.14-.28-1.57-1.34-4.2-4.96-7.37Z"/><path class="cls-1" d="M20.39,44.4c.44-.67,1.45-1.65,3.66-2.27-.09-.07-.17-.16-.22-.27-.04-.08-3.58-7.57-14.38-11.26-.27,2.11-.7,7.65,1.35,11.03,3.99,.35,7.15,1.45,9.58,2.77Z"/><path class="cls-1" d="M19.55,54.78c1.35-.59,4.68-1.89,7.66-1.68-.74-1.5-5.56-10.09-19.07-10.09-.27,0-.55,0-.83,.01-.07,1.87-.04,7.37,2.27,11.92,1.08-.35,5.44-1.56,9.96-.16Z"/><path class="cls-1" d="M14.03,30.9c3.06,1.53,5.37,3.3,7.06,4.95,.91-.67,2.54-1.64,4.79-2.16-.51-1.86-2.86-8.39-11.5-12.09-.66,1.29-2.03,4.8-.37,9.24,0,.02,0,.04,.01,.06Z"/><path class="cls-1" d="M17.76,21.61c1.91,1.1,3.46,2.32,4.71,3.56,.64-.63,1.69-1.39,3.32-1.86-.21-.11-.37-.3-.4-.55,0-.06-.85-5.72-5.88-7.93-.7,.87-2.25,3.23-1.71,6.44,.02,.12,0,.23-.03,.33Z"/><path class="cls-2" d="M44.15,61.52c-5.24,6.19-12.16,5.82-14.33,5.53,.01-.31,0-.69-.07-1.15,.28-1.57,1.34-4.2,4.96-7.37,3.01-2.64,6.68-3.04,9.43-2.85,.15-.5,.34-.99,.56-1.48-1.79-.17-4-.12-6.26,.58-1.53-.68-4.6-1.83-7.41-1.71,.89-1.82,5.83-10.38,19.65-10.06,.03,.73,.04,2.03-.1,3.61,.53-.48,1.07-.95,1.6-1.38,.06-1.72-.03-2.9-.05-3.02-.03-.37-.34-.66-.71-.68-.87-.04-1.69-.04-2.49,0,2.24-4.76,1.02-11.74,.96-12.06-.04-.21-.17-.4-.35-.51-.18-.11-.41-.14-.61-.07-1.12,.35-2.15,.75-3.14,1.17,1.51-5.59-1.12-9.64-1.24-9.82-.2-.3-.58-.41-.9-.28-.66,.26-1.28,.54-1.88,.83,.39-4.39-2.41-7.26-2.54-7.39-.21-.21-.52-.28-.79-.17-.85,.32-1.59,.72-2.26,1.17-.63-1.8-2.53-6.01-6.88-7.87-.19-.08-.4-.08-.59,0-4.35,1.87-6.25,6.07-6.88,7.87-.67-.45-1.41-.85-2.26-1.17-.28-.1-.59-.04-.79,.17-.13,.13-2.93,2.99-2.54,7.39-.6-.29-1.22-.57-1.88-.83-.33-.13-.71-.02-.9,.28-.12,.18-2.75,4.23-1.24,9.82-.98-.42-2.01-.82-3.14-1.17-.21-.06-.43-.04-.61,.07-.18,.11-.31,.3-.35,.51-.06,.32-1.28,7.3,.96,12.06-.8-.02-1.63-.02-2.49,.02-.37,.02-.68,.31-.71,.68-.03,.35-.72,8.53,3.1,14.65,.11,.17,.28,.26,.46,.31,4.55,9.99,12.59,11.46,16.88,11.46,1.36,0,2.33-.14,2.7-.21,.37,.07,1.38,.23,2.8,.23,1.33,0,3.02-.14,4.86-.65,2.44-.67,5.44-2.08,8.12-4.99-.16-.31-.32-.64-.45-.98-.07-.18-.12-.36-.18-.53Zm-10.01-14.66c-3.34,2.88-4.6,5.85-4.65,5.97-.07,.16-.06,.32-.02,.47-.16,.04-.32,.08-.47,.13-.11-.04-.22-.06-.33-.09,.1-.19,.12-.42,.03-.63-.05-.12-1.35-3.06-4.75-5.91-.64-.54-1.39-1.1-2.25-1.64,.49-.66,2.14-2.12,7.3-2.12s6.92,1.56,7.34,2.17c-.84,.54-1.57,1.1-2.2,1.64Zm-8.94-5.62c-.07-.16-.95-2-3.05-4.3,1.19-.84,3.52-2.1,6.84-2.1s5.71,1.31,6.84,2.1c-2.1,2.3-2.97,4.14-3.05,4.3-.09,.21-.08,.43,.01,.62-1.05-.19-2.3-.31-3.81-.31s-2.76,.12-3.81,.31c.09-.19,.1-.42,.01-.62Zm.24-22.8c.8-.37,2.18-.99,3.56-1.47,1.42,.49,2.81,1.11,3.57,1.46-1.19,2.17-1.5,4.13-1.52,4.28-.02,.13,0,.25,.05,.36-.64-.11-1.32-.19-2.1-.19-.83,0-1.58,.07-2.25,.2,.1-.15,.16-.33,.13-.53-.02-.15-.3-2.02-1.44-4.12Zm3.56,5.95c3.11,0,4.75,1.13,5.5,1.88-2.64,3.05-3.59,5.98-3.88,7.16-.51-.06-1.05-.1-1.61-.1s-1.1,.03-1.62,.09c-.3-1.18-1.24-4.11-3.88-7.16,.77-.78,2.39-1.89,5.49-1.89Zm19.54,6.21c.27,2.12,.7,7.66-1.36,11.04-3.99,.36-7.13,1.48-9.54,2.8-.43-.67-1.43-1.68-3.69-2.32,.09-.07,.17-.16,.22-.27,.04-.08,3.55-7.56,14.38-11.26Zm-4.94-9c.66,1.29,2.03,4.8,.37,9.24,0,.02,0,.04-.01,.06-3.06,1.53-5.37,3.3-7.06,4.95-.96-.71-2.58-1.65-4.79-2.16,.51-1.86,2.86-8.39,11.5-12.09Zm-5.12-6.77c.69,.87,2.25,3.25,1.71,6.44-.02,.12,0,.23,.03,.33-1.91,1.1-3.46,2.32-4.71,3.56-.64-.64-1.67-1.36-3.21-1.82,.12-.11,.2-.26,.23-.43,0-.06,.91-5.87,5.95-8.09Zm-9.49-6.79c4.07,1.92,5.62,6.36,5.93,7.36-.6,.55-1.12,1.14-1.55,1.75-.79-.37-2.46-1.12-4.14-1.68-.15-.05-.32-.05-.47,0-1.64,.55-3.28,1.3-4.12,1.69-.43-.61-.96-1.2-1.57-1.76,.31-1.02,1.87-5.44,5.93-7.35Zm-9.49,6.79c5.04,2.21,5.88,7.87,5.88,7.93,.03,.25,.19,.44,.4,.55-1.62,.47-2.68,1.23-3.32,1.86-1.24-1.24-2.79-2.46-4.71-3.56,.03-.11,.05-.22,.03-.33-.54-3.22,1.01-5.57,1.71-6.44Zm-5.11,6.77c8.64,3.7,10.99,10.23,11.5,12.09-2.25,.52-3.88,1.49-4.79,2.16-1.7-1.65-4.01-3.42-7.06-4.95,0-.02,0-.04-.01-.06-1.66-4.44-.29-7.95,.37-9.24Zm-4.93,9c10.79,3.69,14.34,11.19,14.38,11.26,.05,.11,.13,.2,.22,.27-2.21,.62-3.22,1.59-3.66,2.27-2.43-1.31-5.59-2.42-9.58-2.77-2.06-3.38-1.62-8.92-1.35-11.03Zm-2.14,12.42c.28,0,.55-.01,.83-.01,13.51,0,18.33,8.59,19.07,10.09-2.98-.21-6.31,1.09-7.66,1.68-4.52-1.4-8.89-.19-9.96,.16-2.32-4.55-2.34-10.05-2.27-11.92Zm20.85,24.02c-2.65,.33-12.53,.7-17.56-10.83,2.1-.55,8.12-1.66,12.67,2.32,3.62,3.17,4.68,5.8,4.96,7.37-.06,.45-.08,.84-.07,1.14Zm-3.9-9.64c-.87-.76-1.78-1.34-2.7-1.81,2.45-.89,5.27-1.42,7.15-.67,.18,.07,.38,.07,.56,0,1.87-.75,4.7-.22,7.15,.67-.92,.46-1.83,1.05-2.7,1.8-2.57,2.25-3.98,4.29-4.73,5.96-.76-1.67-2.16-3.71-4.73-5.96Z"/></g></svg>